<mxfile host="app.diagrams.net" agent="Mozilla/5.0 (Windows NT 10.0; Win64; x64) AppleWebKit/537.36 (KHTML, like Gecko) Chrome/140.0.0.0 Safari/537.36 Edg/140.0.0.0" version="28.2.3">
  <diagram name="PÃ¡gina-1" id="ujeh9tD1VFeZQ8wGEFF5">
    <mxGraphModel dx="1418" dy="786" grid="1" gridSize="10" guides="1" tooltips="1" connect="1" arrows="1" fold="1" page="1" pageScale="1" pageWidth="827" pageHeight="1169" math="0" shadow="0">
      <root>
        <mxCell id="0" />
        <mxCell id="1" parent="0" />
        <mxCell id="2InVt1iIL_gRPily-bUj-9" value="" style="edgeStyle=orthogonalEdgeStyle;rounded=0;orthogonalLoop=1;jettySize=auto;html=1;" edge="1" parent="1" source="2InVt1iIL_gRPily-bUj-1" target="2InVt1iIL_gRPily-bUj-2">
          <mxGeometry relative="1" as="geometry" />
        </mxCell>
        <mxCell id="2InVt1iIL_gRPily-bUj-1" value="inicio&lt;div&gt;&lt;br&gt;&lt;/div&gt;" style="ellipse;whiteSpace=wrap;html=1;" vertex="1" parent="1">
          <mxGeometry x="354" width="120" height="80" as="geometry" />
        </mxCell>
        <mxCell id="2InVt1iIL_gRPily-bUj-10" value="" style="edgeStyle=orthogonalEdgeStyle;rounded=0;orthogonalLoop=1;jettySize=auto;html=1;" edge="1" parent="1" source="2InVt1iIL_gRPily-bUj-2" target="2InVt1iIL_gRPily-bUj-3">
          <mxGeometry relative="1" as="geometry" />
        </mxCell>
        <mxCell id="2InVt1iIL_gRPily-bUj-2" value="ler kmi" style="shape=parallelogram;perimeter=parallelogramPerimeter;whiteSpace=wrap;html=1;fixedSize=1;" vertex="1" parent="1">
          <mxGeometry x="354" y="110" width="120" height="60" as="geometry" />
        </mxCell>
        <mxCell id="2InVt1iIL_gRPily-bUj-11" value="" style="edgeStyle=orthogonalEdgeStyle;rounded=0;orthogonalLoop=1;jettySize=auto;html=1;" edge="1" parent="1" source="2InVt1iIL_gRPily-bUj-3" target="2InVt1iIL_gRPily-bUj-4">
          <mxGeometry relative="1" as="geometry" />
        </mxCell>
        <mxCell id="2InVt1iIL_gRPily-bUj-3" value="ler kmf" style="shape=parallelogram;perimeter=parallelogramPerimeter;whiteSpace=wrap;html=1;fixedSize=1;" vertex="1" parent="1">
          <mxGeometry x="350" y="210" width="120" height="60" as="geometry" />
        </mxCell>
        <mxCell id="2InVt1iIL_gRPily-bUj-12" value="" style="edgeStyle=orthogonalEdgeStyle;rounded=0;orthogonalLoop=1;jettySize=auto;html=1;" edge="1" parent="1" source="2InVt1iIL_gRPily-bUj-4" target="2InVt1iIL_gRPily-bUj-5">
          <mxGeometry relative="1" as="geometry" />
        </mxCell>
        <mxCell id="2InVt1iIL_gRPily-bUj-4" value="ler litrosg" style="shape=parallelogram;perimeter=parallelogramPerimeter;whiteSpace=wrap;html=1;fixedSize=1;" vertex="1" parent="1">
          <mxGeometry x="350" y="320" width="120" height="60" as="geometry" />
        </mxCell>
        <mxCell id="2InVt1iIL_gRPily-bUj-13" value="" style="edgeStyle=orthogonalEdgeStyle;rounded=0;orthogonalLoop=1;jettySize=auto;html=1;" edge="1" parent="1" source="2InVt1iIL_gRPily-bUj-5" target="2InVt1iIL_gRPily-bUj-6">
          <mxGeometry relative="1" as="geometry" />
        </mxCell>
        <mxCell id="2InVt1iIL_gRPily-bUj-5" value="distancia = kmf - kmi" style="rounded=0;whiteSpace=wrap;html=1;" vertex="1" parent="1">
          <mxGeometry x="354" y="420" width="120" height="60" as="geometry" />
        </mxCell>
        <mxCell id="2InVt1iIL_gRPily-bUj-14" value="" style="edgeStyle=orthogonalEdgeStyle;rounded=0;orthogonalLoop=1;jettySize=auto;html=1;" edge="1" parent="1" source="2InVt1iIL_gRPily-bUj-6" target="2InVt1iIL_gRPily-bUj-8">
          <mxGeometry relative="1" as="geometry" />
        </mxCell>
        <mxCell id="2InVt1iIL_gRPily-bUj-6" value="consumo = (listrosg * 100) / distancia" style="rounded=0;whiteSpace=wrap;html=1;" vertex="1" parent="1">
          <mxGeometry x="354" y="524.5" width="120" height="60" as="geometry" />
        </mxCell>
        <mxCell id="2InVt1iIL_gRPily-bUj-7" value="consumo" style="shape=parallelogram;perimeter=parallelogramPerimeter;whiteSpace=wrap;html=1;fixedSize=1;" vertex="1" parent="1">
          <mxGeometry x="350" y="610" width="120" height="60" as="geometry" />
        </mxCell>
        <mxCell id="2InVt1iIL_gRPily-bUj-8" value="&lt;div&gt;fim&lt;/div&gt;" style="ellipse;whiteSpace=wrap;html=1;" vertex="1" parent="1">
          <mxGeometry x="354" y="700" width="120" height="80" as="geometry" />
        </mxCell>
      </root>
    </mxGraphModel>
  </diagram>
</mxfile>
